<svg xmlns="http://www.w3.org/2000/svg" width="200" height="200" viewBox="0 0 200 200">
  <path d="m14.48 174c1.67-1.28 7.51-4.83 10.35-5.06 2.84-0.24 15.05-7.44 21.36-11.32 2.96-1.5 6.89-2.09 11.48-4.55l2.66-2.07 2.03-3.78 2.52-1.06-1.39-8.47 1.28-4.39 2.95-2.18 1.27-0.24 0.72-1.76-1.64-3.56-4.57-9.66-2.26-10.12c-2.26 0.17-4.63-2.73-5-6.61-0.48-5-3.18-13.07-4.15-16.09l-1.4-7.05c0.09-2.08 1.73-3.84 3.99-2.78 2.26 1.07 2.61 2.48 2.61 2.48l-2.84-11-1.04-14.54 0.48-5.38 1.27-2.58-1.84 2.08 2.14-6.41-1.95-0.71 4.4-8.47c0.95-5 3-8.43 8.47-10.59l0.95-2.08-0.23-0.93 3.18-2.34 3.83-2.46 8.31-2.18 2.52-2.08 5.23-0.73h6.46l3.48 0.47-0.95-0.71 6.31-0.08 4.88 1.41 6.36 3.15 6.18-0.72 5.58 4.51 6.18 7.76 2.43 1.52 0.62 7.13 2.26-0.72 3.83 2.08 2.14 4.51-2.37-2.42-4.28-2.81-1.16 0.72 7.34 7.75 0.47 3.78 0.37 10.28-0.59 2.81 0.47 7.39-1.94 9.16 1.82-1.07c1.84 0.47 3 2.55 2.4 5.95l-3.45 13.86-1.11 9.88c-0.95 3.03-3.82 4.55-4.88 4.86l-2.26 11-1.51 5.14-0.84 4.91 3.36 3.03 1.04 3.78-0.72 10.28 1.52 1.84 2.52 4.13 3.83 1.14 6.18 3.7 10.81 4.31 11.27 3.13 5.69 3.78 5.09 4.06-0.24 0.59-7.83-3.97-6.9-2.58-9.61-3.13-8.06-3.45-3.56-1.35-3.67-0.36-1.17 2.35 1.84 0.59 5.45 0.12 5.7 4.13-2.14 3.78 10.93-3.66 3.12 5.04-2.95 5 1.38 1.18-3.57 2.81 1.37 0.59-2.94 2.18-8.93 2.18-5.13 2.93-4.16 1.06-7.84 3.58 1.28-2.42-5.35 2.42-7.84 4.51 5.94-4.51-8.31 3.79-7.34 3.32 4.76-3.88-7.96 3.32 8.69-5.88-9.95 4.51 9.95-6.53 8.2-4.89-5.82 1.52-11.98 3.02-10.7 1.58-12.47 2.58-9.5 0.12-2.75-3.3-4.88-0.59-4 0.59-5-0.59-2.95 0.59-2.52-1.06-3.06 0.47-3.45-1.06-2.95 1.57-1.37-1.06 0.59-1.64-3.17-0.35-1.95-2.58-1.05-7.05-3.06 0.59-9.39 4.89-2.13-2.58-1.17 0.24 0.12-3.25-0.84-0.95 2.04-3.03 10.19-4.91 10.07-5.01-8.8 3.78-10.33 5.26-2.84-0.47-8.56 3.78v-0.48z" fill="#4D4D4D" opacity=".7"/>
  <path d="m147 72.41c-2.26-1.6-4.21 1.21-5.37 4.76l0.92-5.71 2.62-8.33 0.16-7.98-0.59-2.07 0.76-3.26-1.05-9.59-4.28-7.02-2.52-1.97 1.17-1.36 4.51 2.26-2.84-2.93-3.83 0.55c1.94-3.67 0.78-6.93-0.5-9.36 1.05 3.78 0 6.21-0.72 6.92 0.12-3.14-1.58-7.04-4.52-10.17l-5.23-5.76-8.06-3.66 3.06 2.43 6.46 4.51-6.07-3.44-8.18-4.14-5.69-1.77-7.06 0.47 3.45 1.42-5.94-1.16-8.18-0.26-5.57 1.42 2.53 0.6-5.95 1.07-8.3 3.03-3.83 2.8 4.59-2.08 5.12-0.72-5 2.16-5.95 2.84 2.36 0.24c-5.35 1.76-9.43 4.31-11.25 10.84 2.52-4.12 4.56-6.81 8.5-7.87-4.59 3.15-9.27 8.92-13.18 17.77 1.67-2.73 4.62-5.75 7.26-7.49-3.71 3.56-5.65 6.82-6.93 11.82l4.29-4.33-4.64 8.59 0.47 10.88 0.84-4.12-0.35 11.48 1.94 8.48 1.17 3.46v8.59l-1.29-5.12c-1.16-3.04-3.53-5-4.18-2.52l0.69 6.53 3.24 8.87 2.11 9.96 2.05 2.45 0.23-4.4-3.12-10.27 1.49 0.95 0.63 3.13 0.72-8.47 1.16-19.35 3.57-10.28-3.69 5.5 3.22-8.99-4.18 6.78 3.69-12.81 2.26-8.46 7.72-6.53 3.34-1.5h3.99l7.83 2.49h4.67l-2.84-1.42 5.35 1.18 1.64 1.95-0.72-2.81-4.76-3.78 5.94 3.46 3.34 2.81-0.46-4.44 1.75 0.96 3.07-0.8 2.64 2.58 1.05-2.74 1.04 2.74 3.35-2.74-1.38 2.74 5.23-3.88 3.45 0.7 4.77 3.57 0.24-1.18 4.67 4.91 1.84 0.71-1.49 0.4 5.45 5.51 3.72 6.18 0.84-6.18-4-6.19 4.17 2.46 1.45-1.78 1.76 3.13-0.83-3.85-5.35-5.58 1.64-0.59 4.41 3.88 1.53 2.29 0.74-0.83-1.64-2.81-3.18-2.93-3.36-1.08c1.28-1.41 3.43-1.77 5.56-0.7-1.94-1.84-4.35-2.05-6.61-0.87 0.59-2.73 0-6.15-2.13-8.96 0.72 2.55 0.84 4.63 0.37 6.15l-4.77-7.14-6.98-6.17-7.23-2.95-2.75-0.95 4.88 3.86 8.31 5.12 1.76 6.79-5.95-7.46-6.46-3.88 2.42 4.51 5.23 7.92-5.7-6.79-3.92-4.89-6.46-5.22-6.34-0.92 6.34 3.46 3.46 3.24-5.8-3.24-8.76-1.87-7.06-0.67-7.84 3.78 3.34-0.72 3.18 0.84-6.06 0.72-4.66 0.72-5.46 2.16-2.52 1.44 3.57-1.84 6.46-1.76 4.66 0.72 5.33 2.17 7.61 7.75-9.51-7.04-5.82-1.44-0.84 2.08 4.88 3.45 5.45 3.13-5.94-2.27-5.94-2.83-4.67 0.82-4.56 4.9 5.23-1.44 7.06 2.73-8.07-1.41-10.06 2.18 5.82-1.43-8.69 3.88-5.23 4.9 3.22-4.16 5.95-3.88-3.17 0.73 5.35-4.52 3.45-4.25 5.58-3.41 5.45-0.76 4.41 1.56 7.06 3.88 9.05 6.77-5.95-9.17-4.28-4.51 5.35 1.43 7.06 6.17 1.64 1.42-5.46-7.47 5.46 2.17 6.46 6.75-1.28 2.08 2.14-2.08-2.14-8.48-7.6-3.44 6.46 2.16 5.35 4.89 3.73 6.18 0.72 2.74-3.73-2.09-2.13 5.21 1.56-7.75-4.88-7.74-1.64-0.6 4.41 6.79-0.35 9.22 2.95-5.86-1.05-3.36 3.83 3.88 2.14 2.82 3.05 0.71 4.11 4.51 2.84 2.06-1.17 0.71 5.35 6.19 3.28 6.33 0.47 6.92-4.76-5.85 3.93 9.17 1.76-1.18 3.22 3.45 0.95-3.45-0.24 6.17-2.53 7.84-1.16 4.8-0.12 11.61 1.94-5.51 3.83-6.91 0.95 0.73-0.84 7.13-2.84 8.47-2.64 13.03 0.84-1.6 1.51-3.78 1.4-10.28 2.63-9.89 0.47-3.77-1.3-2.84z" fill="#000"/>
  <path d="m69.71 129.9 1.17 1.92-0.47 5.26 2.84 2.81 9.02 5.14 6.71 2.94 7.73 3.22 6.46 0.47 5.84-1.06 7.83-4.51 10.05-6.52 5.23-5.58 1.64-7.37 1.64 0.95 2.42 3.3 0.47 6.18-1.53 8.47 1.85-1.07 3.17 4.43 1.38 5.49-2.26 3.88-5.79 7.37-8.78 5.1-15.21 6.25-9.94 0.24-0.72-0.92 7.15-0.59 9.95-3.7 8.61-4.33 8.3-6.49 8.31-6.18-0.57-2.42-3.05 2.42-1.37-3.13-1.17-5.76-1.54 1.42 1.04-9.17-2.03 1.41 0.35-8.58-1.28-2.81-1.53 8.47-2.54 2.42-13.03 9.17-8.31 3.87-7.72-0.47-10.71-3.04-9.94-4.89-8.19-6.19-1.05-6.17-0.43-1.65z" fill="#000"/>
  <path d="m62.91 149.9 1.86-3.73 1.28 0.47-0.95 6.18 3.06 5.86 6.46 6.52 2.37 4.51-1.84 1.42-6.99 2.81-4.07-1.88-9.29-2.91 2.94-5.01-5.45 2.5-11.98 5.89-5.45 2.12-2.14-2.71 1.38-3.78 8.31-5.2 9.94-5.76 5.32-1.07 2.74-2.93 2.5-3.3z" fill="#000"/>
  <path d="m67.33 133.3 1.05 3.43 2.64 5.48 5.82 7.48 3.35 3.12-5.35-1.57 4.41 4.88 4.88 1.43-2.84 0.32 5.94 5.2 9.4 1.06-1.85-3.88 2.96 1.42 4.27-0.71 8.93-2.18 9.95-4.89 9.94-5.64-1.64-2.81-3.05 0.32-6.99 4.89-10.93 4.52-7.73 1.46-5.45-2.5-8.31-3.88-10.47-5.52-7.73-6.6-2.52-3.34 1.32-1.49z" fill="#000"/>
  <path d="m143.2 161.2 5.45 4.51 3.83 4.89-4.41 1.45-1.37-3.94-1.37 1.59-2.13-4.51-3.07-1.46 3.07-2.53z" fill="#000"/>
  <path d="m124.1 157.4 3.05 4.89-5.94 0.75-3.83 1.76-9.95 1.08-2.26-2.18 6.46-1.44 8.64-4.06 3.83-0.8z" fill="#000"/>
  <path d="m70.06 171.8 2.85 4.51 6.46 3.55 3.45-0.71 1.37-2.82-1.37-3.88-2.54-1.42-2.95 1.42-7.27-0.65z" fill="#000"/>
  <path d="m42.18 176 4.07-1.74 3.56 0.79-2.74 3.24-1.38 0.56-3.51-2.85z" fill="#000"/>
  <path d="m75.07 181.3 1.05 3.88 4.41 0.55 6.78-0.95 10.31-0.71 6.46-1.42-4.07-1.43-9.95-0.72-9.95-2.18-5.04 2.98z" fill="#000"/>
  <path d="m127.7 175.1 4.58 0.95 3.83-0.95 2.52 2.06-4.88 2.14-6.05-0.96v-3.24z" fill="#000"/>
  <path d="m79.25 189.6 8.06-0.72v0.72l-8.06 0.35v-0.35z" fill="#000"/>
  <path d="m80.62 190.7 3.83-0.35v0.35h-3.83z" fill="#000"/>
  <path d="m107.4 194.6 10.56-5.74 1.06 0.36-11.62 5.38z" fill="#000"/>
  <path d="m124.1 191.7 3.65-2.13h1.05l-4.7 2.13z" fill="#000"/>
  <path d="m58.11 100.3 2.13 3.55 0.35 1.32-2.48-4.87z" fill="#000"/>
  <path d="m53.32 78.43 1.38 0.35 1.47 5.84-0.72 0.55-2.13-6.74z" fill="#000"/>
  <path d="m147 76.66-3.06 4.26-1.27 3.7-0.47-1.39 2.66-6.18 2.14-0.39z" fill="#000"/>
  <path d="m88.91 69.72-4.88-0.48h-7.73l-3.05 0.92-4.87 6.18 0.23 0.32 2.37-1.53 2.42-2.52 3.44-1.39 4.28 1.07 5.95 0.32 4.16 2.16-2.32-5.05z" fill="#000"/>
  <path d="m106.6 72.61 2.52-3.25 3.46-0.43h8.31l3.45-0.59-2.53 1.38 5.35 0.98 4.07 3.24-3.45-1.76-5.45-1.48-8.31 0.48-3.45-1.02-3.97 2.45z" fill="#000"/>
  <path d="m107.2 73.2 2.54-3.12 0.62 0.36-3.16 2.76z" fill="#000"/>
  <path d="m72.91 80.76c2.52-3.67 4.95-5.23 10.2-5.23 4.08 0 6.21 1.48 8.63 4.29l-0.34 0.51c-2.53-2.32-4.79-3.24-8.29-3.24-4.08 0-5.92 1.16-8.87 3.79l-1.33-0.12z" fill="#000"/>
  <path d="m107.8 79.62c1.94-2.84 3.37-4.09 7.85-4.09 4.07 0 6.59 1.48 11.26 4.6l-0.34 0.48c-3.46-2.56-5.98-3.75-10.14-3.75-3.57 0-5.26 0.95-7.72 3.23l-0.91-0.47z" fill="#000"/>
  <path d="m76.08 80.09c2.53 1.07 3.81 1.55 7.03 1.55 2.64 0 4.12-0.6 6.38-2.02l0.24 0.32c-2.26 1.53-3.98 2.25-6.62 2.25-3.06 0-4.5-0.72-7.03-2.1z" fill="#000"/>
  <path d="m109 82.12c2.85 1.41 4.41 2.37 8.24 3.09l-4.88-1.68-3.36-1.41z" fill="#000"/>
  <path d="m83.11 76.1c-2.13 0-3.41 1.27-3.41 2.92 0 1.39 1.54 2.26 2.91 2.26 2.26 0 3.79-1.5 3.79-3.35 0-1.15-1.27-1.83-3.29-1.83z" fill="#000"/>
  <path d="m117.1 75.53c-2.37 0-3.42 1.17-3.42 2.68 0 1.53 1.37 2.48 3.12 2.48 2.26 0 3.45-1.31 3.45-3 0-1.27-1.05-2.16-3.15-2.16z" fill="#000"/>
  <path d="m82.61 77.37c-0.69 0-1.15 0.46-1.15 1.06 0 0.48 0.46 0.83 1.01 0.83 0.79 0 1.31-0.52 1.31-1.17 0-0.48-0.47-0.72-1.17-0.72z" fill="#47322A"/>
  <path d="m116.8 76.7c-0.84 0-1.31 0.51-1.31 1.19 0 0.58 0.59 0.97 1.24 0.97 0.95 0 1.54-0.65 1.54-1.41 0-0.52-0.59-0.75-1.47-0.75z" fill="#47322A"/>
  <path d="m95.04 77.01c1.05 2.53 0.29 7.57 0 12.46l-0.34-7.35c0.08-2.3-0.99-5.46-4.51-8.1l4.85 2.99z" fill="#000"/>
  <path d="m105.1 76.02c-1.05 1.59-1.17 2.89-0.82 5.62-0.12-2.73 0.35-4.03 1.72-6.19l-0.9 0.57z" fill="#000"/>
  <path d="m92.38 95.07c-2.65 2.18-3.37 4.64-3.37 6.51 0 2.44 1.64 3.96 3.9 3.96 1.85 0 3.01-1.05 5.06-1.05 1.74 0 2.69 1.05 4.83 1.05 3.61 0 7.77-1.05 7.77-5.48 0-1.94-1.05-3.37-2-4.32 1.05 1.51 1.52 2.58 1.52 4.32 0 3.35-2.42 4.87-5.87 4.87-1.84 0-2.89-1.07-4.74-1.07-2.02 0-3.18 1.07-4.92 1.07-2.75 0-4.83-1.19-4.83-4.32 0-1.86 0.84-3.6 2.65-5.54z" fill="#000"/>
  <path d="m94.21 100.3c0.84 0 1.18 0.72 1.8 1.19 1.05 0.84 1.85 1 2.69 1.71-1.53 0-2.48-0.59-3.77-1.55-0.72-0.56-1.56-0.71-2.55-0.71 0.53-0.48 1.1-0.64 1.83-0.64z" fill="#000"/>
  <path d="m105.6 101c0.95 0 1.42 0.56 1.78 1.2-0.62-0.24-1.09-0.36-1.78-0.36-1.53 0-2.81 0.95-4.34 1.31 0.84-1.19 2.37-2.15 4.34-2.15z" fill="#000"/>
  <path d="m95.92 105.8-6.8 6.53-5.94 2.16-2.03 3.15v4.51l1.16-5.22 3.73-3.14 1.64 1.42 5.45-4.51 2.84-3.56 1.05-1.34h-1.1z" fill="#000"/>
  <path d="m102.4 106.3 2.75 1.42 3.45 3.88-0.83-2.81 3.45 3.88 5.45 2.42 2.53 3.88-1.17-5.23-0.74 2.81-1.38-2.15-4.41-2.16-6.46-5.51-2.64-0.43z" fill="#000"/>
  <path d="m96.86 109.1 1.28 3.84 1.06 0.71 1.37-0.71 1.75-4.52-1.54-2.13 1.54 0.71 1.38 3.13-1.54 3.45-2.84-0.36-2.26-1.03-0.2-3.09z" fill="#000"/>
  <path d="m85.75 117.9 1.27-0.71 8.31 0.31 3.83-0.47 3.93 0.59 7.73-0.59 3.45-0.44 0.69 0.99-2.53-0.24-4.41 0.72-5.94-0.08-3.45-0.36-4.88 0.36-8-0.08z" fill="#000"/>
  <path d="m62.14 101 1.05 3.12 0.72 7.37 1.38 3.12 0.35-5.5 1.06 7.77 1.37 1.42-0.35-5.23 1.75 6.52 1.05 1.42 0.62-4.53 0.72 7.75 1.37 2.16 0.46-6.18 1.06 7.38 1.27 2.16 0.95-3.55 0.35 5.48 1.37 1.08 1.06-5.49 1.64 3.88 0.62-3.88 1.05 6.18 1.05-1.45 0.84 4.51 1.06-2.18 1.16 2.81 1.05-2.81 1.38 4.52 1.05-2.81 1.53 4.51 1.38-2.17 1.05 3.88 1.05-8.47 1.37 7.75 0.94-1.43 0.72-6.32 0.72 7.75 1.05-2.17 1.16 2.17 1.54-5.5 0.56 4.51 1.75-4.89 0.74 4.89 2.42-6.18 0.84 5.22 1.65-5.58 1.37 3.45 2.26-7.47 0.84 5.49 1.94-7.75 1.27 4.51 1.38-5.48 0.94 3.88 2.04-3.44 1.06-9.17 0.94 7.75 1.85-3.44 0.72-6.18 0.95 3.88 1.75-5.48 0.34 2.16 2.37-6.52 0.35 2.81 2.42-8.47 0.47 3.14 2.95-16.08 0.46 1.07-2.42 12.45-2.43 9.49-4.88 10.61-7.73 10.98-9.95 9.49-6.71 3.13-6.78-0.6-6.82-0.83-7.73-3.54-9.02-8.47-5.85-10.16-5.23-11.63-2.1-12.59z" fill="#000"/>
  <path d="m82.12 172.7c4.76 1.84 7.29 2.4 12.64 2.4h5.23l-5.84 0.55c-5.14-0.35-8.09-1.15-12.03-2.95z" fill="#000"/>
  <path d="m95.66 123.8 1.05 0.59h2.42l4.41-0.83-1.05 1.34-1.64 0.71-1.75-0.35-2.04 0.35-0.72-0.71-0.68-1.1z" fill="#000"/>
  <path d="m96.37 125.2 1.06 2.81 0.71-1.43 0.63 2.16 0.94-2.16 0.72 2.16 1.19-3.54 1.16 2.08-0.72 2.81-1.64 1.42-1.27-2.17-1.38 2.17-1.74-2.17-0.37-3.55 0.71-0.59z" fill="#000"/>
</svg>